<?xml version="1.0" encoding="UTF-8" standalone="no"?><!DOCTYPE svg PUBLIC "-//W3C//DTD SVG 1.1//EN" "http://www.w3.org/Graphics/SVG/1.1/DTD/svg11.dtd"><svg width="100%" height="100%" viewBox="0 0 1971 1638" version="1.1" xmlns="http://www.w3.org/2000/svg" xmlns:xlink="http://www.w3.org/1999/xlink" xml:space="preserve" xmlns:serif="http://www.serif.com/" style="fill-rule:evenodd;clip-rule:evenodd;stroke-linejoin:round;stroke-miterlimit:2;"><rect id="advo-color-physPurp-white" x="2.587" y="3.64" width="1965.99" height="1630.97" style="fill:none;"/><g><path d="M736.424,1402.19l-399.858,88.707l44.1,-210.052l0.02,-3.848l3.028,2.969l394.883,-87.544l-42.173,209.768Z" style="fill:url(#_Linear1);"/><path d="M885.356,1168.76l595.714,-132.066c76.277,-16.91 140.111,-88.248 153.53,-167.117l-0,233.551c-0,58.314 -40.513,108.8 -97.443,121.43l-693.97,153.953l42.169,-209.751Z" style="fill:url(#_Linear2);"/><path d="M1208.26,443.82l-762.045,168.941l-63.809,317.388l0,-405.365c0,-58.321 40.522,-108.81 97.461,-121.433l770.888,-170.902l-42.495,211.371Z" style="fill:url(#_Linear3);"/><path d="M1357.52,208.781l125.782,-27.885c36.822,-8.164 75.36,0.822 104.774,24.43c29.415,23.607 46.529,59.287 46.529,97.003l-0,200.736c-6.483,-36.629 -24.675,-66.544 -49.646,-87.205c-32.069,-26.537 -76.123,-38.675 -125.06,-27.826l-144.874,32.118l42.495,-211.371Z" style="fill:url(#_Linear4);"/><path d="M604.767,985.404l-36.322,-188.578l-1.452,0.322l-36.322,204.683l74.096,-16.427Zm-183.06,230.354l115.502,-568.244l61.746,-13.689l115.503,517.032l-74.096,16.427l-21.793,-111.775l-100.974,22.385l-21.792,121.438l-74.096,16.426Z" style="fill:#1c1c1d;fill-rule:nonzero;"/><path d="M750.779,1142.81l0,-542.638l109.691,-24.318c42.617,-9.448 74.943,-4.42 96.978,15.083c22.035,19.503 33.053,51.61 33.053,96.322l-0,253.79c-0,50.809 -11.744,90.884 -35.232,120.225c-23.488,29.341 -57.267,48.897 -101.337,58.667l-103.153,22.869Zm74.096,-485.9l-0,396.308l34.142,-7.569c20.824,-4.616 35.595,-13.353 44.312,-26.209c8.717,-12.857 13.076,-30.971 13.076,-54.343l-0,-261.411c-0,-21.34 -4.117,-36.94 -12.35,-46.801c-8.232,-9.861 -23.245,-12.376 -45.038,-7.544l-34.142,7.569Z" style="fill:#1c1c1d;fill-rule:nonzero;"/><path d="M1298.51,478.739l-106.058,566.15l-65.379,14.494l-105.332,-519.286l78.454,-17.393l58.841,365.735l1.453,-0.322l59.567,-391.985l78.454,-17.393Z" style="fill:#1c1c1d;fill-rule:nonzero;"/><path d="M1338.46,597.919c-0,-21.847 3.632,-41.96 10.896,-60.337c7.265,-18.378 16.95,-34.497 29.057,-48.359c11.623,-13.247 24.82,-24.302 39.591,-33.166c14.771,-8.863 29.662,-14.959 44.675,-18.287c15.013,-3.329 29.905,-3.836 44.676,-1.521c14.77,2.314 28.209,7.464 40.316,15.45c11.623,8.601 21.067,20.48 28.331,35.637c7.264,15.156 10.897,33.658 10.897,55.506l-0,286.561c-0,22.864 -3.633,43.231 -10.897,61.1c-7.264,17.869 -16.708,33.427 -28.331,46.674c-12.107,13.862 -25.546,25.225 -40.316,34.088c-14.771,8.864 -29.663,14.96 -44.676,18.288c-15.013,3.328 -29.904,3.835 -44.675,1.521c-14.771,-2.315 -27.968,-7.772 -39.591,-16.374c-12.107,-7.985 -21.792,-19.302 -29.057,-33.951c-7.264,-14.648 -10.896,-33.404 -10.896,-56.268l-0,-286.562Zm74.096,270.135c-0,18.799 4.964,31.544 14.891,38.235c9.928,6.691 21.672,8.533 35.232,5.527c13.56,-3.007 25.304,-10.056 35.232,-21.148c9.928,-11.093 14.892,-26.039 14.892,-44.838l-0,-286.562c-0,-18.799 -4.964,-31.544 -14.892,-38.234c-9.928,-6.691 -21.672,-8.533 -35.232,-5.527c-13.56,3.006 -25.304,10.056 -35.232,21.148c-9.927,11.093 -14.891,26.038 -14.891,44.838l-0,286.561Z" style="fill:#1c1c1d;fill-rule:nonzero;"/></g><defs><linearGradient id="_Linear1" x1="0" y1="0" x2="1" y2="0" gradientUnits="userSpaceOnUse" gradientTransform="matrix(1965.99,1630.97,-1630.97,1965.99,2.58693,3.64007)"><stop offset="0" style="stop-color:#eb59ab;stop-opacity:1"/><stop offset="1" style="stop-color:#9664d7;stop-opacity:1"/></linearGradient><linearGradient id="_Linear2" x1="0" y1="0" x2="1" y2="0" gradientUnits="userSpaceOnUse" gradientTransform="matrix(1965.99,1630.97,-1630.97,1965.99,2.58693,3.64007)"><stop offset="0" style="stop-color:#eb59ab;stop-opacity:1"/><stop offset="1" style="stop-color:#9664d7;stop-opacity:1"/></linearGradient><linearGradient id="_Linear3" x1="0" y1="0" x2="1" y2="0" gradientUnits="userSpaceOnUse" gradientTransform="matrix(1965.99,1630.97,-1630.97,1965.99,2.58693,3.64007)"><stop offset="0" style="stop-color:#eb59ab;stop-opacity:1"/><stop offset="1" style="stop-color:#9664d7;stop-opacity:1"/></linearGradient><linearGradient id="_Linear4" x1="0" y1="0" x2="1" y2="0" gradientUnits="userSpaceOnUse" gradientTransform="matrix(1965.99,1630.97,-1630.97,1965.99,2.58693,3.64007)"><stop offset="0" style="stop-color:#eb59ab;stop-opacity:1"/><stop offset="1" style="stop-color:#9664d7;stop-opacity:1"/></linearGradient></defs></svg>