<?xml version="1.0" encoding="UTF-8" standalone="no"?><!DOCTYPE svg PUBLIC "-//W3C//DTD SVG 1.1//EN" "http://www.w3.org/Graphics/SVG/1.1/DTD/svg11.dtd"><svg width="100%" height="100%" viewBox="0 0 1971 1634" version="1.1" xmlns="http://www.w3.org/2000/svg" xmlns:xlink="http://www.w3.org/1999/xlink" xml:space="preserve" xmlns:serif="http://www.serif.com/" style="fill-rule:evenodd;clip-rule:evenodd;stroke-linejoin:round;stroke-miterlimit:2;"><rect id="myAdvo-peachWhite" x="3.675" y="1.147" width="1965.99" height="1630.97" style="fill:none;"/><g><path d="M452.709,611.208l-0,-74.549c-0,-33.789 12.793,-69.03 35.567,-97.971c22.773,-28.941 53.66,-49.211 85.866,-56.351l739.791,-164.008l-42.495,211.371l-818.729,181.508Z" style="fill:url(#_Linear1);"/><path d="M1413.91,196.164l159.041,-35.259c67.065,-14.868 121.433,30.119 121.433,100.481l-0,225.212c-10.621,-82.669 -79.946,-132.94 -163.884,-114.332l-159.085,35.269l42.495,-211.371Z" style="fill:url(#_Linear2);"/><path d="M1694.39,838.163l-0,224.022c-0,70.354 -54.357,139.442 -121.416,154.318l-673.387,149.389l42.17,-209.753l588.281,-130.418c84.187,-18.664 153.714,-99.921 164.352,-187.558Z" style="fill:url(#_Linear3);"/><path d="M799.601,1388.07l-392.734,87.126l44.1,-210.052l0.001,-0.203l390.806,-86.639l-42.173,209.768Z" style="fill:url(#_Linear4);"/><g><path d="M664.554,972.036l-36.321,-188.578l-1.453,0.322l-36.322,204.682l74.096,-16.426Zm-183.06,230.354l115.502,-568.244l61.747,-13.689l115.502,517.032l-74.096,16.426l-21.793,-111.775l-100.973,22.386l-21.793,121.437l-74.096,16.427Z" style="fill:#fffefd;fill-rule:nonzero;"/><path d="M810.566,1129.44l0,-542.637l109.691,-24.318c42.617,-9.448 74.943,-4.421 96.978,15.082c22.035,19.504 33.053,51.611 33.053,96.323l-0,253.79c-0,50.808 -11.744,90.883 -35.232,120.225c-23.488,29.341 -57.267,48.897 -101.337,58.667l-103.153,22.868Zm74.096,-485.899l-0,396.308l34.142,-7.569c20.824,-4.617 35.595,-13.353 44.312,-26.21c8.717,-12.856 13.076,-30.97 13.076,-54.342l0,-261.412c0,-21.339 -4.116,-36.94 -12.349,-46.8c-8.233,-9.861 -23.246,-12.376 -45.039,-7.545l-34.142,7.57Z" style="fill:#fffefd;fill-rule:nonzero;"/><path d="M1358.29,465.37l-106.059,566.151l-65.379,14.494l-105.332,-519.286l78.454,-17.393l58.841,365.734l1.453,-0.322l59.567,-391.985l78.455,-17.393Z" style="fill:#fffefd;fill-rule:nonzero;"/><path d="M1398.25,584.551c0,-21.848 3.632,-41.96 10.897,-60.338c7.264,-18.377 16.95,-34.497 29.057,-48.359c11.623,-13.246 24.819,-24.301 39.59,-33.165c14.771,-8.864 29.663,-14.959 44.675,-18.288c15.013,-3.328 29.905,-3.835 44.676,-1.521c14.771,2.315 28.209,7.465 40.317,15.451c11.622,8.601 21.066,20.48 28.33,35.636c7.265,15.157 10.897,33.659 10.897,55.506l-0,286.562c-0,22.864 -3.632,43.23 -10.897,61.1c-7.264,17.869 -16.708,33.427 -28.33,46.673c-12.108,13.862 -25.546,25.225 -40.317,34.089c-14.771,8.863 -29.663,14.959 -44.676,18.288c-15.012,3.328 -29.904,3.835 -44.675,1.52c-14.771,-2.314 -27.967,-7.772 -39.59,-16.373c-12.107,-7.986 -21.793,-19.303 -29.057,-33.951c-7.265,-14.648 -10.897,-33.405 -10.897,-56.269l0,-286.561Zm74.096,270.135c-0,18.799 4.964,31.544 14.892,38.235c9.928,6.69 21.671,8.532 35.231,5.526c13.56,-3.006 25.304,-10.055 35.232,-21.148c9.928,-11.092 14.892,-26.038 14.892,-44.837l0,-286.562c0,-18.799 -4.964,-31.544 -14.892,-38.235c-9.928,-6.69 -21.672,-8.533 -35.232,-5.526c-13.56,3.006 -25.303,10.055 -35.231,21.148c-9.928,11.092 -14.892,26.038 -14.892,44.837l-0,286.562Z" style="fill:#fffefd;fill-rule:nonzero;"/></g><g><path d="M278.956,905.865l-0,-201.1l26.382,-5.849l35.267,98.663l0.539,-0.119l34.997,-114.24l26.652,-5.909l0,201.1l-27.459,6.087l-0,-122.298l-0.539,0.12l-27.19,92.455l-13.73,3.044l-26.921,-80.459l-0.539,0.119l0,122.298l-27.459,6.088Z" style="fill:#fffefd;fill-rule:nonzero;"/><path d="M454.213,867.011l-0,-85.015l-37.69,-107.729l29.075,-6.446l22.075,75.038l0.539,-0.119l22.075,-84.826l29.075,-6.446l-37.69,124.44l0,85.016l-27.459,6.087Z" style="fill:#fffefd;fill-rule:nonzero;"/></g></g><defs><linearGradient id="_Linear1" x1="0" y1="0" x2="1" y2="0" gradientUnits="userSpaceOnUse" gradientTransform="matrix(1958.33,1630.97,-1630.97,1958.33,3.67549,1.14678)"><stop offset="0" style="stop-color:#fdf952;stop-opacity:1"/><stop offset="1" style="stop-color:#eb59ab;stop-opacity:1"/></linearGradient><linearGradient id="_Linear2" x1="0" y1="0" x2="1" y2="0" gradientUnits="userSpaceOnUse" gradientTransform="matrix(1958.33,1630.97,-1630.97,1958.33,3.67549,1.14678)"><stop offset="0" style="stop-color:#fdf952;stop-opacity:1"/><stop offset="1" style="stop-color:#eb59ab;stop-opacity:1"/></linearGradient><linearGradient id="_Linear3" x1="0" y1="0" x2="1" y2="0" gradientUnits="userSpaceOnUse" gradientTransform="matrix(1958.33,1630.97,-1630.97,1958.33,3.67549,1.14678)"><stop offset="0" style="stop-color:#fdf952;stop-opacity:1"/><stop offset="1" style="stop-color:#eb59ab;stop-opacity:1"/></linearGradient><linearGradient id="_Linear4" x1="0" y1="0" x2="1" y2="0" gradientUnits="userSpaceOnUse" gradientTransform="matrix(1958.33,1630.97,-1630.97,1958.33,3.67549,1.14678)"><stop offset="0" style="stop-color:#fdf952;stop-opacity:1"/><stop offset="1" style="stop-color:#eb59ab;stop-opacity:1"/></linearGradient></defs></svg>